<svg width="57" height="51" viewBox="0 0 57 51" fill="none" xmlns="http://www.w3.org/2000/svg">
<path d="M23.1664 13.2254C22.0427 12.2745 20.4003 12.4474 19.4495 13.5711C10.8054 23.944 18.0664 40.022 31.8969 40.022C33.4529 40.022 35.0088 39.7626 36.5647 39.3304C37.9478 38.8982 38.7257 37.4287 38.2935 36.0457C37.8613 34.6626 36.3918 33.8847 35.0088 34.3169C24.6359 37.4287 16.5969 25.1542 23.5122 16.8559C24.463 15.7321 24.2901 14.0898 23.1664 13.2254Z" fill="url(#paint0_linear_712_1924)"/>
<path d="M28.0071 13.5711C28.2664 13.5711 28.5258 13.5711 28.7851 13.4847C29.1308 13.3982 29.4766 13.3118 29.7359 13.2253C31.119 12.966 32.0698 11.583 31.8105 10.1135C31.5512 8.64397 30.1681 7.69313 28.6986 8.03889C28.18 8.12533 27.7478 8.29821 27.2291 8.38465C25.8461 8.81686 25.0681 10.2863 25.5003 11.6694C25.8461 12.7931 26.8834 13.5711 28.0071 13.5711Z" fill="#E94B58"/>
<path d="M10.3729 23.5119C10.5458 23.5119 10.6322 23.5119 10.8051 23.5119C12.1017 23.5119 13.2254 22.561 13.3983 21.2644C14.7814 12.361 22.3017 5.61864 31.378 5.27288C31.8102 5.27288 32.1559 5.27288 32.5881 5.27288C34.0576 5.27288 35.2678 4.14915 35.2678 2.67966C35.2678 1.21017 34.1441 0 32.6746 0C32.1559 0 31.6373 0 31.1186 0C19.5356 0.432203 9.94068 9.07627 8.21186 20.4864C7.95254 21.9559 8.98983 23.2525 10.3729 23.5119ZM40.6271 34.5763C41.1458 35.0085 41.7508 35.1814 42.2695 35.1814C43.0475 35.1814 43.739 34.8356 44.2576 34.2305C48.7525 28.7847 49.1847 20.8322 45.2949 14.9542C44.1712 13.2254 42.7017 11.7559 41.0593 10.6322C39.8492 9.7678 38.2068 10.1136 37.4288 11.3237C36.5644 12.5339 36.9102 14.1763 38.1203 14.9542C39.2441 15.7322 40.1949 16.7695 40.9729 17.8932C43.5661 21.8695 43.3068 27.2288 40.2814 30.8593C39.3305 31.9831 39.5034 33.6254 40.6271 34.5763ZM46.5051 42.5288C47.1102 42.5288 47.8017 42.2695 48.3203 41.8373C53.5068 37.083 56.3593 30.2542 56.1 23.2525C55.8407 16.2508 52.5559 9.68136 47.0237 5.27288C45.9 4.40847 44.2576 4.58136 43.3068 5.70508C42.4424 6.82881 42.6153 8.47119 43.739 9.42203C48.061 12.8797 50.6542 17.9797 50.8271 23.5119C51 28.9576 48.839 34.3169 44.7763 38.0339C43.739 38.9847 43.6525 40.7136 44.6034 41.7508C45.122 42.183 45.8136 42.5288 46.5051 42.5288ZM3.63051 34.3169C3.88983 34.3169 4.06271 34.3169 4.32203 34.2305C5.70508 33.8847 6.56949 32.4153 6.13729 30.9458C5.5322 28.6983 5.18644 26.4508 5.18644 24.1169C5.18644 22.6475 3.97627 21.5237 2.59322 21.5237C1.12373 21.5237 0 22.7339 0 24.2034C0 26.9695 0.432203 29.7356 1.12373 32.3288C1.38305 33.6254 2.42034 34.3169 3.63051 34.3169ZM42.2695 43.0475C41.7508 41.6644 40.1949 41.0593 38.8983 41.578C36.9102 42.3559 34.8356 42.7881 32.6746 42.8746C23.5983 43.2203 15.6458 36.9966 13.6576 28.1797C13.3119 26.7966 11.9288 25.8458 10.5458 26.1915C9.16271 26.5373 8.21186 27.9203 8.55763 29.3034C10.978 40.3678 20.8322 48.1475 32.0695 48.1475C32.3288 48.1475 32.6746 48.1475 32.9339 48.1475C35.7 48.061 38.3797 47.4559 40.8864 46.5051C42.183 45.9864 42.8746 44.4305 42.2695 43.0475ZM17.2017 46.1593C13.8305 43.9119 11.0644 41.0593 8.98983 37.6017C8.21186 36.3915 6.65593 35.9593 5.35932 36.6508C4.14915 37.4288 3.71695 38.9847 4.40847 40.2814C6.91525 44.4305 10.2 47.8881 14.2627 50.5678C14.6949 50.8271 15.2136 51 15.7322 51C16.5966 51 17.461 50.5678 17.8932 49.7898C18.7576 48.5797 18.4119 46.9373 17.2017 46.1593Z" fill="url(#paint1_linear_712_1924)"/>
<defs>
<linearGradient id="paint0_linear_712_1924" x1="17.0174" y1="14.7452" x2="32.5995" y2="41.7344" gradientUnits="userSpaceOnUse">
<stop stop-color="#E94B58"/>
<stop offset="1" stop-color="#F0832B"/>
</linearGradient>
<linearGradient id="paint1_linear_712_1924" x1="16.5357" y1="5.20295" x2="40.5203" y2="46.7456" gradientUnits="userSpaceOnUse">
<stop stop-color="#1EA0D4"/>
<stop offset="1" stop-color="#2B64AC"/>
</linearGradient>
</defs>
</svg>
